<svg xmlns="http://www.w3.org/2000/svg" width="1024" height="1024" viewBox="0 0 1024 1024" version="1.1">
	<path d="M 721.677 141.577 C 704.955 146.868, 680.275 168.442, 621.668 229 C 581.998 269.990, 574.878 277.440, 543.500 310.788 C 516.990 338.963, 514.413 343.952, 521 354.339 C 527.236 364.172, 525.005 369.637, 507.763 386.769 L 497.428 397.038 476.871 376.269 C 437.650 336.642, 435.212 333.508, 434.270 321.500 C 434.012 318.200, 434.263 311.419, 434.829 306.432 C 436.887 288.304, 433.141 275.740, 421.285 261 C 417.967 256.875, 393.886 232.238, 367.772 206.250 C 325.677 164.359, 319.942 159, 317.203 159 C 314.003 159, 310.962 161.947, 311.039 164.973 C 311.060 165.813, 330.410 188.543, 354.039 215.483 C 399.007 266.755, 399.501 267.426, 395.171 271.345 C 390.718 275.375, 389.634 274.515, 362.283 245.250 C 348.019 229.988, 327.910 208.275, 317.596 197 C 307.282 185.725, 297.767 176.080, 296.452 175.568 C 294.619 174.853, 293.592 175.059, 292.056 176.449 C 287.999 180.120, 288.384 181.818, 294.759 188.367 C 302.211 196.023, 326.075 223.111, 349.058 250 C 373.699 278.830, 377 282.911, 377 284.552 C 377 286.761, 373.277 290.001, 370.750 289.991 C 368.064 289.981, 350.302 271.219, 307.565 223.250 C 291.762 205.512, 278.175 191, 277.371 191 C 275.412 191, 271 195.506, 271 197.507 C 271 198.385, 274.049 202.343, 277.776 206.302 C 292.851 222.317, 354.347 295.474, 356.256 299.663 C 357.490 302.370, 355.282 306.431, 352.129 307.256 C 349.381 307.975, 347.089 306.156, 338.717 296.619 C 328.147 284.578, 280.182 231.089, 269.787 219.750 C 260.399 209.510, 257.926 208.215, 254.655 211.829 C 252.346 214.381, 252.529 215.360, 256.473 221.525 C 264.531 234.121, 318.565 305.036, 334.554 324 C 352.825 345.669, 362.629 350.307, 389.208 349.855 C 406.450 349.562, 411.399 350.856, 418.931 357.628 C 425.911 363.903, 474.500 418.005, 474.500 419.501 C 474.500 420.175, 442.325 452.475, 403 491.279 C 353.967 539.662, 330.482 563.517, 328.260 567.197 C 323.805 574.576, 322.384 582.161, 323.945 590.230 C 328.784 615.255, 357.116 624.885, 376.313 608.030 C 378.360 606.233, 387.326 595.928, 396.238 585.131 C 425.327 549.887, 483.086 480.781, 493.914 468.265 L 504.500 456.029 509.381 461.227 C 517.719 470.105, 547.214 504.870, 579.532 543.908 C 640.644 617.729, 634.826 611.130, 642.026 614.797 C 655.086 621.447, 667.505 619.931, 676.617 610.573 C 685.588 601.359, 687.485 588.634, 681.660 576.745 C 678.592 570.482, 666.994 558.917, 600 495.311 C 574.425 471.030, 547.969 445.589, 541.208 438.775 L 528.916 426.386 537.641 416.443 C 567.525 382.386, 627.470 311.577, 670.081 260 C 711.693 209.633, 732.200 183.246, 740.208 169.767 C 744.025 163.341, 744.500 161.857, 744.500 156.344 C 744.500 151.605, 744.005 149.482, 742.395 147.323 C 737.832 141.202, 729.855 138.989, 721.677 141.577 M 367.200 688.200 C 365.322 690.078, 365.484 795.327, 367.368 796.890 C 368.346 797.702, 379.097 797.950, 405.118 797.763 L 441.500 797.500 441.789 788.149 C 441.975 782.114, 441.666 778.302, 440.916 777.399 C 439.979 776.270, 435.047 776, 415.378 776 L 391 776 391 764.020 L 391 752.040 412.250 751.770 L 433.500 751.500 433.791 742.585 C 434.002 736.127, 433.727 733.443, 432.791 732.850 C 432.081 732.399, 422.387 732.024, 411.250 732.015 L 391 732 391 720.500 L 391 709 414.918 709 C 428.073 709, 439.548 708.727, 440.418 708.393 C 441.702 707.900, 442 706.053, 442 698.593 C 442 692.776, 441.559 688.959, 440.800 688.200 C 439.912 687.312, 430.356 687, 404 687 C 377.644 687, 368.088 687.312, 367.200 688.200 M 546.503 705.957 L 545.787 716.913 539.144 717.207 L 532.500 717.500 532.180 722.500 C 532.003 725.250, 532.143 729.413, 532.491 731.750 L 533.123 736 539.590 736 L 546.058 736 545.779 759.250 C 545.501 782.436, 545.507 782.512, 548 786.956 C 551.515 793.221, 556.992 796.707, 565.362 798.008 C 572.068 799.050, 583.010 798.500, 586 796.969 C 587.216 796.347, 587.405 794.625, 587 787.877 L 586.500 779.552 579.778 779.526 C 574.140 779.504, 572.689 779.133, 570.778 777.224 C 568.589 775.037, 568.487 774.191, 568.174 755.511 L 567.848 736.074 577.674 735.787 L 587.500 735.500 587.787 726.881 L 588.074 718.263 578.037 717.551 L 568 716.840 568 705.920 L 568 695 557.609 695 L 547.219 695 546.503 705.957 M 616.205 715.839 C 604.815 719.891, 597.981 729.133, 598.022 740.429 C 598.074 754.685, 607.314 762.795, 626.500 765.423 C 637.785 766.968, 642 769.437, 642 774.500 C 642 778.515, 639.319 781.027, 633.996 782.001 C 626.743 783.327, 621.625 781.488, 616.389 775.674 C 613.786 772.783, 611.017 770.620, 610.115 770.771 C 607.163 771.267, 595 777.370, 595 778.355 C 595 780.870, 600.612 788.437, 605.117 791.998 C 617.188 801.540, 637.679 802.652, 651.556 794.520 C 660.792 789.107, 665.481 778.094, 663.194 767.187 C 660.857 756.045, 653.061 750.509, 634.254 746.634 C 627.532 745.249, 622.201 743.587, 621.004 742.503 C 615.089 737.151, 622.875 728.971, 632.377 730.554 C 635.538 731.080, 637.491 732.315, 640.749 735.847 L 644.998 740.454 652.041 738.056 C 662.641 734.448, 662.972 734.066, 659.740 729.183 C 656.079 723.652, 652.405 720.336, 646.500 717.237 C 639.699 713.667, 624.307 712.957, 616.205 715.839 M 475.870 716.512 C 465.748 719.745, 456.609 728.473, 455.373 736.088 L 454.796 739.645 463.408 741.452 L 472.020 743.259 476.006 738.730 C 479.122 735.191, 481.076 733.941, 484.952 733.011 C 495.920 730.380, 503 735.277, 503 745.494 L 503 748.689 488.700 749.339 C 472.829 750.060, 466.274 751.570, 460.333 755.874 C 455.365 759.473, 452.884 764.558, 452.259 772.423 C 451.290 784.627, 456.290 793.080, 466.828 797.053 C 471.462 798.800, 474.056 799.116, 481 798.778 C 490.038 798.338, 494.349 796.784, 499.250 792.199 L 502 789.626 502 793.206 C 502 797.742, 502.708 798, 515.148 798 L 525.132 798 524.816 767.750 L 524.500 737.500 521.699 731.796 C 518.458 725.196, 514.707 721.707, 507 718.122 C 502.384 715.976, 499.812 715.522, 491 715.299 C 483.828 715.117, 479.033 715.502, 475.870 716.512 M 482.024 764.022 C 477.434 765.102, 475 768.267, 475 773.156 C 475 784.015, 487.904 785.047, 499.238 775.096 C 502.217 772.480, 502.496 771.767, 502.165 767.602 L 501.799 763 493.649 763.102 C 489.167 763.159, 483.936 763.573, 482.024 764.022 M 497.698 815.635 C 497.314 816.019, 497 840.510, 497 870.060 C 497 918.129, 497.167 923.850, 498.582 924.393 C 500.905 925.285, 517.289 925.104, 518.759 924.170 C 519.750 923.541, 519.963 911.921, 519.759 869.436 L 519.500 815.500 508.948 815.218 C 503.145 815.063, 498.083 815.251, 497.698 815.635 M 215.633 817.515 C 215.285 818.422, 215 842.270, 215 870.510 C 215 915.856, 215.184 922.041, 216.571 923.429 C 217.776 924.633, 220.326 925, 227.490 925 C 232.630 925, 237.548 924.727, 238.418 924.393 C 239.779 923.871, 240 921.287, 240 905.893 L 240 888 249.059 888 L 258.117 888 267.160 906.500 L 276.202 925 288.401 925 C 296.202 925, 301.011 924.589, 301.741 923.859 C 302.987 922.613, 300.083 916.297, 288.392 894.825 L 282.036 883.150 288.357 876.825 C 296.502 868.674, 298.507 863.362, 298.482 850 C 298.467 841.889, 298.083 839.683, 295.862 834.914 C 292.560 827.823, 287.198 822.455, 280.086 819.120 C 274.519 816.509, 274.400 816.499, 245.383 816.183 C 219.076 815.897, 216.204 816.026, 215.633 817.515 M 629 832.966 L 629 844 625.250 844.171 C 621.756 844.330, 619.359 844.513, 616.211 844.858 C 615.243 844.965, 614.994 847.181, 615.211 853.750 L 615.500 862.500 621.750 862.798 L 628 863.095 628.010 885.798 C 628.019 907.690, 628.106 908.685, 630.434 913.686 C 633.325 919.894, 638.122 923.415, 645.980 925.094 C 652.584 926.505, 667.814 925.659, 669.544 923.786 C 670.368 922.893, 670.543 920.057, 670.115 914.500 L 669.500 906.500 663.264 906.841 C 657.450 907.159, 656.825 906.979, 654.014 904.168 L 651 901.154 651 882.113 L 651 863.072 660.750 862.786 L 670.500 862.500 670.500 854 L 670.500 845.500 660.650 845 L 650.799 844.500 650.650 833.500 L 650.500 822.500 639.750 822.216 L 629 821.932 629 832.966 M 691 832.966 L 691 844 686.250 844.014 C 676.909 844.041, 676.886 844.065, 677.213 853.876 L 677.500 862.500 683.829 863 L 690.157 863.500 690.044 885.700 C 689.952 903.900, 690.218 908.586, 691.519 911.700 C 694.775 919.496, 701.905 924.501, 711.332 925.609 C 716.992 926.274, 728.724 925.416, 730.668 924.194 C 731.415 923.724, 731.566 920.807, 731.136 915.170 L 730.500 906.839 723.661 906.670 C 717.878 906.526, 716.538 906.150, 714.989 904.236 C 712.599 901.283, 711.736 892.820, 712.161 876.500 L 712.500 863.500 722 863 L 731.500 862.500 731.788 853.787 L 732.077 845.073 722.288 844.787 L 712.500 844.500 712.500 833.500 L 712.500 822.500 701.750 822.216 L 691 821.932 691 832.966 M 240 852.623 L 240 869.247 251.805 868.826 C 262.031 868.461, 264.120 868.089, 267.432 866.042 C 277.654 859.724, 277.165 842.628, 266.619 837.623 C 264.073 836.415, 260.229 836, 251.599 836 L 240 836 240 852.623 M 342 843.126 C 321.122 846.512, 305.838 867.213, 308.507 888.491 C 310.536 904.667, 318.672 916.211, 332.662 922.765 C 338.006 925.269, 339.515 925.500, 350.500 925.500 C 362.009 925.500, 362.772 925.367, 369.142 922.251 C 377.609 918.108, 385.912 909.393, 389.116 901.285 C 391.008 896.497, 391.402 893.605, 391.402 884.500 C 391.402 870.560, 389.292 864.590, 381.324 855.983 C 374.805 848.942, 366.513 844.528, 357 843.035 C 349.706 841.891, 349.613 841.891, 342 843.126 M 559.929 843.304 C 549.182 846.351, 539.705 854.826, 536.014 864.692 C 526.979 888.840, 534.847 913.531, 554.500 922.700 C 560.067 925.298, 561.404 925.500, 573.021 925.500 C 585.120 925.500, 585.764 925.391, 592.126 922.259 C 598.902 918.923, 608.498 909.993, 607.742 907.726 C 607.183 906.048, 594.984 898, 593 898 C 592.107 898, 590.344 899.396, 589.082 901.103 C 585.597 905.817, 578.939 908.363, 571.792 907.715 C 562.980 906.916, 557.821 902.186, 555.469 892.750 L 554.783 890 581.830 890 L 608.877 890 609.568 885.395 C 610.506 879.143, 608.508 867.911, 605.288 861.335 C 602.021 854.664, 595.641 848.640, 588.262 845.263 C 581.522 842.177, 567.359 841.198, 559.929 843.304 M 765.603 843.579 C 752.714 847.704, 743.924 857.740, 740.508 872.231 C 735.357 894.079, 743.706 914.882, 760.801 922.793 C 765.979 925.189, 767.642 925.433, 779 925.465 C 790.643 925.498, 791.919 925.306, 797.605 922.679 C 804.723 919.389, 814.627 910.077, 813.668 907.577 C 813.007 905.856, 801.412 898, 799.532 898 C 798.895 898, 797.052 899.407, 795.437 901.126 C 787.935 909.111, 775.326 910.291, 768.118 903.683 C 765.522 901.303, 762.057 894.531, 762.022 891.767 C 762.002 890.172, 764.105 890.012, 788.250 889.767 L 814.500 889.500 814.459 878.897 C 814.422 868.995, 814.204 867.856, 811.167 861.689 C 807.419 854.074, 802.017 848.901, 794 845.250 C 786.904 842.018, 773.031 841.201, 765.603 843.579 M 404.698 845.635 C 403.616 846.717, 403.886 902.049, 404.993 906.035 C 406.556 911.661, 411.554 918.694, 415.972 921.482 C 428.180 929.189, 442.953 928.223, 452.812 919.074 C 454.633 917.383, 456.295 916, 456.504 916 C 456.714 916, 457.023 917.913, 457.193 920.250 L 457.500 924.500 466.500 924.794 C 471.450 924.956, 476.576 924.819, 477.890 924.490 L 480.281 923.891 479.660 904.696 C 479.319 894.138, 479.031 876.388, 479.020 865.250 L 479 845 468.148 845 L 457.296 845 456.654 853.250 C 456.301 857.788, 456.009 869.849, 456.006 880.054 L 456 898.608 452.750 901.684 C 446.901 907.220, 440.343 909.006, 434.630 906.619 C 427.786 903.759, 427.558 902.741, 427 872.547 L 426.500 845.500 415.948 845.218 C 410.145 845.063, 405.083 845.251, 404.698 845.635 M 565.500 859.964 C 561.109 861.803, 556.618 867.799, 555.854 872.843 L 555.500 875.185 570.964 875.046 C 579.469 874.969, 586.601 874.732, 586.813 874.520 C 587.618 873.715, 584.664 866.401, 582.627 864.155 C 578.366 859.457, 571.010 857.657, 565.500 859.964 M 773 859.722 C 768.042 861.584, 764.629 865.838, 762.544 872.750 L 761.865 875 777.558 875 L 793.250 875 792.613 871.750 C 790.904 863.021, 780.766 856.804, 773 859.722 M 342.316 861.943 C 327.255 868.782, 327.537 900.160, 342.718 906.629 C 348.985 909.299, 357.164 908.040, 361.847 903.683 C 370.035 896.067, 371.288 878.224, 364.376 867.671 C 361.528 863.325, 355.345 860.044, 350 860.044 C 348.075 860.044, 344.617 860.899, 342.316 861.943" stroke="none" fill="#000000" fill-rule="evenodd"/>
</svg>